#!OML:ASF F:\VICON\USERDATA\INSTALL\Justin_Nancy\Justin_Nancy.ASF
:FULLY-SPECIFIED
:DEGREES
206
root 1.19511 17.3838 1.0843 -0.46959 -3.106 -0.476431
lowerback 3.22323 1.73889 -0.619012
upperback -0.686967 2.32572 1.28885
thorax -2.59015 1.17952 1.5435
lowerneck -15.998 -2.78432 -9.25171
upperneck 25.7997 -2.53816 4.30608
head 11.1978 -1.52961 2.78009
rclavicle -5.90142e-017 1.51076e-014
rhumerus -26.902 -10.7314 -81.1882
rradius 37.0498
rwrist 3.9226
rhand -19.4296 15.316
rfingers 7.12502
rthumb 6.89049 -14.5519
lclavicle -5.90142e-017 1.51076e-014
lhumerus -38.2579 21.5556 77.8669
lradius 20.7834
lwrist -14.7771
lhand -12.7074 29.8844
lfingers 7.12502
lthumb 13.3752 59.4351
rfemur 6.59609 6.47603 26.8327
rtibia 27.4536
rfoot -15.6617 -10.42
rtoes -10.6871
lfemur -23.4801 -1.51617 -20.3505
ltibia 24.5709
lfoot 2.46461 -0.221476
ltoes 3.3487
207
root 1.21155 17.3976 1.19467 -0.553665 -2.8054 -0.182741
lowerback 3.36609 1.61904 -0.828497
upperback -0.779706 2.15405 1.15626
thorax -2.76292 1.09738 1.5285
lowerneck -16.1804 -2.94386 -9.53835
upperneck 26.262 -2.71645 4.45736
head 11.4325 -1.62734 2.8663
rclavicle 2.93456e-014 1.07344e-014
rhumerus -27.1553 -11.7165 -81.0467
rradius 36.2393
rwrist 4.76369
rhand -19.5184 15.108
rfingers 7.12502
rthumb 6.80474 -14.7627
lclavicle 2.93456e-014 1.07344e-014
lhumerus -38.338 21.5023 77.8171
lradius 20.9244
lwrist -14.3992
lhand -12.7602 30.4802
lfingers 7.12502
lthumb 13.3243 60.0342
rfemur 6.22143 6.02632 26.337
rtibia 28.9323
rfoot -15.3197 -9.87261
rtoes -10.5333
lfemur -22.8775 -0.933875 -20.9523
ltibia 24.4015
lfoot 1.71513 -0.814499
ltoes 5.05071
208
root 1.22519 17.4126 1.30062 -0.647555 -2.6846 0.00689171
lowerback 3.58802 1.55107 -0.996984
upperback -0.913269 2.05329 1.07255
thorax -3.02491 1.05142 1.53452
lowerneck -16.0693 -2.91255 -9.59111
upperneck 26.5313 -2.72772 4.64301
head 11.5168 -1.62106 2.94866
rclavicle -2.19346e-014 -1.41137e-014
rhumerus -27.8379 -12.507 -80.8762
rradius 35.8684
rwrist 5.37609
rhand -19.7077 15.0629
rfingers 7.12502
rthumb 6.622 -14.8135
lclavicle -2.19346e-014 -1.41137e-014
lhumerus -38.4709 22.0508 77.4207
lradius 20.8057
lwrist -14.6583
lhand -13.0942 29.8168
lfingers 7.12502
lthumb 13.0024 59.3916
rfemur 5.74537 5.70027 25.9697
rtibia 30.4905
rfoot -14.8122 -9.29148
rtoes -10.4579
lfemur -22.2851 -0.506181 -21.3334
ltibia 24.2326
lfoot 0.977978 -1.33187
ltoes 6.12613
209
root 1.23919 17.4331 1.41532 -0.766276 -2.44943 0.310953
lowerback 3.49944 1.46754 -1.24993
upperback -0.800626 1.92658 0.939061
thorax -2.85827 0.989741 1.55099
lowerneck -16.0541 -2.82213 -9.30476
upperneck 26.4053 -2.69958 4.70753
head 11.4565 -1.56923 2.9261
rclavicle 5.8393e-015 -1.98785e-016
rhumerus -28.1386 -13.2976 -80.7534
rradius 35.3421
rwrist 5.7515
rhand -19.9028 15.0083
rfingers 7.12502
rthumb 6.43363 -14.874
lclavicle 5.8393e-015 -1.98785e-016
lhumerus -38.1373 22.3244 77.3538
lradius 20.6894
lwrist -14.5987
lhand -13.5632 28.8501
lfingers 7.12502
lthumb 12.5503 58.4531
rfemur 5.25909 5.18707 25.4199
rtibia 32.1339
rfoot -14.3849 -8.56178
rtoes -10.535
lfemur -21.6316 -0.244943 -21.8129
ltibia 24.0536
lfoot 0.355716 -1.94334
ltoes 6.95286
210
root 1.2548 17.4496 1.52926 -0.908769 -2.01948 0.460725
lowerback 3.38874 1.2991 -1.32081
upperback -0.646678 1.69738 0.858066
thorax -2.62842 0.873288 1.52606
lowerneck -16.0776 -2.78843 -9.18564
upperneck 26.2395 -2.70267 4.78446
head 11.3958 -1.54608 2.93089
rclavicle 1.81577e-014 6.75868e-015
rhumerus -28.1892 -14.2585 -80.5952
rradius 34.5071
rwrist 6.41051
rhand -19.8685 14.5653
rfingers 7.12502
rthumb 6.46681 -15.316
lclavicle 1.81577e-014 6.75868e-015
lhumerus -37.8356 22.2945 77.4729
lradius 20.713
lwrist -13.9306
lhand -14.2829 27.2408
lfingers 7.12502
lthumb 11.8563 56.8851
rfemur 4.77812 4.45517 24.9972
rtibia 33.8378
rfoot -13.8673 -7.78696
rtoes -11.0011
lfemur -20.9381 -0.18452 -22.1246
ltibia 23.83
lfoot 0.0139456 -2.38959
ltoes 7.59683
211
root 1.27103 17.4658 1.63585 -0.859964 -1.76379 0.566221
lowerback 3.28586 1.1814 -1.37501
upperback -0.67915 1.53873 0.839328
thorax -2.59901 0.794897 1.54816
lowerneck -15.821 -2.83785 -9.47276
upperneck 25.9868 -2.74313 4.89298
head 11.2593 -1.57836 3.00974
rclavicle 7.67495e-015 1.11319e-014
rhumerus -28.5288 -15.0679 -80.2651
rradius 33.8175
rwrist 6.9713
rhand -19.5131 13.9323
rfingers 7.12502
rthumb 6.80982 -15.9381
lclavicle 7.67495e-015 1.11319e-014
lhumerus -37.7459 21.9305 77.782
lradius 20.8705
lwrist -12.9642
lhand -14.8819 25.8116
lfingers 7.12502
lthumb 11.2787 55.4884
rfemur 4.0206 3.85889 24.5725
rtibia 35.5531
rfoot -13.1618 -6.9594
rtoes -11.3859
lfemur -20.5241 0.00697391 -22.3715
ltibia 23.6665
lfoot -0.295862 -2.79988
ltoes 7.06548
212
root 1.28689 17.4808 1.74105 -0.701615 -1.51737 0.748678
lowerback 3.06187 1.09078 -1.48105
upperback -0.63762 1.41431 0.760403
thorax -2.42623 0.732208 1.53829
lowerneck -16.2075 -3.05001 -9.79787
upperneck 26.1194 -2.94358 4.99147
head 11.4133 -1.68756 3.07349
rclavicle -2.94916e-014 -8.54774e-015
rhumerus -28.7155 -15.7761 -80.089
rradius 33.324
rwrist 7.39725
rhand -19.4777 13.3495
rfingers 7.12502
rthumb 6.84407 -16.5199
lclavicle -2.94916e-014 -8.54774e-015
lhumerus -37.1775 22.0243 77.9458
lradius 20.6352
lwrist -12.9157
lhand -14.8642 26.956
lfingers 7.12502
lthumb 11.2957 56.6319
rfemur 3.02729 3.16501 23.9641
rtibia 37.2567
rfoot -12.2653 -6.00782
rtoes -10.3241
lfemur -20.3308 0.260857 -22.7175
ltibia 23.6504
lfoot -0.701885 -3.40576
ltoes 6.52396
